<svg width="376" height="43" viewBox="0 0 376 43" fill="none" xmlns="http://www.w3.org/2000/svg">
<g clip-path="url(#clip0_902_149)">
<path d="M34.3118 20.1116C34.074 20.8497 33.6864 21.5307 33.1732 22.112L30.0957 25.0048L24.5562 19.4038L30.2188 13.8027L33.2963 16.634C33.812 17.0334 34.1961 17.5782 34.3991 18.1981C34.6021 18.818 34.6146 19.4845 34.4349 20.1116H34.3118ZM19.6937 32.9756C18.9798 32.725 18.3214 32.3383 17.7549 31.8369L14.6774 28.944L20.4939 23.343L26.1872 28.944L23.1097 31.8369C22.6881 32.3461 22.1345 32.7294 21.5094 32.9448C20.9178 33.1172 20.2908 33.1278 19.6937 32.9756ZM6.61431 18.5113C6.86368 17.7718 7.26165 17.091 7.78376 16.5109L10.8613 13.6181L16.4008 19.3115L10.7382 24.9125L7.66066 22.0197C7.15252 21.6098 6.76883 21.0662 6.55276 20.4501C6.36806 19.8275 6.36806 19.1647 6.55276 18.5421L6.61431 18.5113ZM21.2325 5.58578C21.9881 5.80392 22.6832 6.1936 23.2636 6.72446L26.3411 9.61731L20.5246 15.4338L14.8312 9.70964L17.9087 6.87833C18.2643 6.38777 18.7568 6.01307 19.3244 5.80121C19.9576 5.61741 20.63 5.61741 21.2632 5.80121L21.2325 5.58578ZM37.2355 12.6025L27.2644 2.90835C26.09 1.83697 24.707 1.01974 23.2021 0.507899C21.5558 -0.0194811 19.7946 -0.0740901 18.1188 0.350288C16.4431 0.774666 14.9201 1.66098 13.7233 2.90835L3.93688 12.6948C2.8304 13.8243 1.99854 15.1932 1.50565 16.6956C0.963929 18.3036 0.905511 20.0353 1.33762 21.6762C1.76973 23.3171 2.67342 24.7954 3.93688 25.9281L13.8464 35.7145C15.0022 36.8178 16.3902 37.6486 17.9087 38.1458C18.8299 38.4635 19.7965 38.6298 20.7708 38.6382C22.0111 38.6036 23.2333 38.332 24.3715 37.838C25.5353 37.3546 26.584 36.631 27.449 35.7145L37.4817 25.9589C38.5804 24.8178 39.4202 23.4532 39.9437 21.9581C40.4777 20.3467 40.5292 18.6144 40.0918 16.9741C39.6544 15.3338 38.7472 13.8571 37.4817 12.7256" fill="#00ACE4"/>
<path d="M176.062 18.5113H180.955C180.875 16.8945 180.207 15.3625 179.078 14.2028C177.265 12.5775 174.894 11.7172 172.461 11.8023C170.137 11.7187 167.859 12.46 166.029 13.895C165.345 14.471 164.789 15.1839 164.398 15.9877C163.953 16.9937 163.8 18.105 163.958 19.1937C164.116 20.2825 164.578 21.3047 165.29 22.1427C166.186 23.1618 167.401 23.8456 168.737 24.0816C170.614 24.4817 172.738 24.6048 174.584 24.8817C175.154 24.9106 175.692 25.1522 176.092 25.5588C176.487 25.9615 176.708 26.5029 176.708 27.0668C176.708 29.3441 174.092 29.7134 172.399 29.7134C171.298 29.7708 170.21 29.4445 169.322 28.7902C168.747 28.3155 168.365 27.6484 168.245 26.9129H163.352C163.541 28.5555 164.317 30.0745 165.537 31.1906C167.418 32.8432 169.867 33.7035 172.369 33.5911C174.988 33.7454 177.567 32.8859 179.57 31.1906C180.192 30.6072 180.676 29.8922 180.986 29.0979C181.33 28.197 181.458 27.2278 181.359 26.2684C181.26 25.309 180.937 24.3863 180.416 23.5748C179.895 22.7632 179.19 22.0854 178.359 21.5961C177.528 21.1068 176.593 20.8197 175.631 20.7579C173.569 20.4501 173.046 20.3886 171.138 20.1731C169.999 19.9885 168.706 19.5576 168.706 18.0804C168.719 17.5926 168.88 17.1203 169.168 16.7263C169.465 16.3307 169.872 16.031 170.337 15.8646C171.036 15.6079 171.781 15.503 172.522 15.5569C173.532 15.5223 174.518 15.8621 175.292 16.5109C175.547 16.7765 175.746 17.0902 175.878 17.4337C176.01 17.7771 176.073 18.1435 176.062 18.5113ZM149.164 18.0804C149.195 17.5962 149.355 17.1288 149.626 16.7263C149.932 16.347 150.336 16.0594 150.795 15.8954C151.492 15.6309 152.236 15.5156 152.98 15.5569C153.99 15.5503 154.971 15.8989 155.75 16.5417C156.007 16.8011 156.209 17.1087 156.347 17.4467C156.484 17.7847 156.553 18.1465 156.55 18.5113H161.443C161.378 16.8911 160.708 15.3542 159.566 14.2028C157.764 12.5603 155.386 11.6974 152.95 11.8023C150.626 11.7187 148.347 12.46 146.518 13.895C145.834 14.464 145.287 15.1792 144.917 15.9877C144.573 16.7953 144.395 17.6641 144.394 18.5421C144.419 19.8915 144.921 21.1886 145.81 22.2043C146.722 23.218 147.945 23.9 149.287 24.1431C151.134 24.5432 153.257 24.6663 155.135 24.9433C155.706 24.966 156.246 25.2086 156.643 25.6203C157.018 26.033 157.226 26.5705 157.227 27.1283C157.227 29.4057 154.642 29.775 152.919 29.775C151.818 29.8248 150.733 29.4993 149.841 28.8517C149.22 28.4004 148.774 27.748 148.58 27.0052H143.84C144.044 28.6258 144.818 30.1208 146.025 31.2214C147.9 32.8854 150.353 33.7473 152.857 33.6218C155.488 33.7875 158.08 32.927 160.089 31.2214C160.897 30.3819 161.45 29.3304 161.683 28.1892C161.917 27.048 161.822 25.8639 161.41 24.7745C160.997 23.6852 160.284 22.7352 159.353 22.0351C158.422 21.335 157.311 20.9134 156.15 20.8194C154.057 20.4809 153.534 20.4501 151.626 20.2039C150.488 20.2039 149.195 19.6192 149.195 18.1112L149.164 18.0804ZM142.424 22.9121C142.636 20.3669 141.998 17.8234 140.609 15.68C139.759 14.4427 138.603 13.4462 137.254 12.7871C135.901 12.1059 134.398 11.7777 132.884 11.8331C131.63 11.7544 130.374 11.9325 129.191 12.3563C128.039 12.8042 126.991 13.4852 126.114 14.3567C125.077 15.4697 124.272 16.7771 123.743 18.2033C123.215 19.6295 122.975 21.1463 123.036 22.6659C122.996 24.2543 123.311 25.8316 123.959 27.2822C124.51 28.717 125.359 30.018 126.452 31.0983C127.328 31.9569 128.377 32.618 129.53 33.0371C130.675 33.4906 131.899 33.7103 133.13 33.6834C134.457 33.7391 135.779 33.5081 137.008 33.0063C138.175 32.472 139.221 31.7079 140.086 30.7598C141.008 29.6565 141.624 28.3297 141.871 26.9129H136.977C136.8 27.5773 136.45 28.1827 135.962 28.6671C135.54 29.0376 135.048 29.3201 134.515 29.498C133.989 29.6674 133.435 29.7302 132.884 29.6826C131.736 29.6392 130.642 29.1799 129.807 28.3901C129.288 27.8485 128.88 27.2108 128.606 26.5128C128.342 25.8162 128.227 25.0718 128.268 24.3278H142.424V22.9121ZM137.224 20.6655H128.176C128.175 19.5472 128.555 18.4618 129.253 17.588C129.675 17.071 130.213 16.6599 130.822 16.3878C131.438 16.1022 132.113 15.9651 132.792 15.9877C133.38 15.957 133.967 16.0514 134.515 16.2647C135.071 16.4564 135.577 16.7722 135.993 17.188C136.878 18.1849 137.342 19.4871 137.285 20.8194L137.224 20.6655ZM115.681 33.1602H120.759V19.2499C120.843 18.2742 120.718 17.2918 120.392 16.3685C120.065 15.4453 119.545 14.6026 118.866 13.8971C118.186 13.1916 117.364 12.6397 116.454 12.2784C115.543 11.9171 114.566 11.7548 113.588 11.8023C112.362 11.7475 111.142 12.0127 110.049 12.5717C108.968 13.1351 108.055 13.9737 107.403 15.0029L106.91 12.3563H102.632V33.1294H107.71V24.6663C107.596 22.7737 107.826 20.8762 108.387 19.0652C108.636 18.2916 109.126 17.6177 109.785 17.1416C110.443 16.6656 111.237 16.4123 112.05 16.4186C114.727 16.4186 115.558 17.8958 115.558 20.3578L115.681 33.1602ZM99.4933 16.7879H100.293V12.0793H99.6472C98.3984 11.9484 97.1395 12.2026 96.0393 12.8077C94.9392 13.4128 94.0504 14.3399 93.4922 15.4646L93.1844 12.3563H88.8759V33.1294H94.0461V22.6352C93.9568 21.881 94.0318 21.1165 94.2658 20.3941C94.4999 19.6717 94.8875 19.0085 95.4021 18.4501C95.9167 17.8917 96.546 17.4512 97.2469 17.159C97.9478 16.8667 98.7037 16.7296 99.4625 16.7571L99.4933 16.7879ZM83.5211 33.4372C84.3859 33.4707 85.2446 33.2798 86.0139 32.8832V29.1902H85.3676C84.5674 29.1902 84.1981 28.8209 84.1981 27.8669V20.2347C84.2555 18.8134 84.0467 17.3939 83.5826 16.0493C82.8821 14.5965 81.7394 13.403 80.3185 12.64C78.8975 11.877 77.2714 11.5837 75.6734 11.8023C70.9649 11.8023 67.1795 13.895 66.9026 18.5728H71.7958C71.7958 16.634 73.3038 15.4953 75.6734 15.4953C78.5355 15.4953 79.2433 16.8187 79.2433 18.7883V20.0808L73.0883 20.5117C72.1745 20.4444 71.2566 20.565 70.3911 20.866C69.5257 21.1671 68.7311 21.6423 68.0564 22.2622C67.3816 22.8822 66.841 23.6338 66.4679 24.4707C66.0948 25.3076 65.8971 26.2121 65.887 27.1283C65.9136 28.074 66.1382 29.0035 66.5461 29.8571C66.9541 30.7106 67.5364 31.4692 68.2555 32.0839C68.9745 32.6986 69.8145 33.1558 70.7211 33.426C71.6277 33.6962 72.5809 33.7734 73.5192 33.6526C74.7588 33.7189 75.9952 33.4717 77.114 32.9338C78.2328 32.3959 79.198 31.5847 79.9204 30.5751C80.0154 31.4336 80.447 32.2194 81.1206 32.7601C81.801 33.2918 82.6631 33.535 83.5211 33.4372ZM79.2433 24.851C79.249 25.5367 79.1077 26.2157 78.8289 26.8423C78.5501 27.4689 78.1403 28.0284 77.6271 28.4833C77.1139 28.9382 76.5092 29.2779 75.8536 29.4795C75.1981 29.681 74.5071 29.7398 73.8269 29.6519C73.472 29.7284 73.1048 29.7284 72.7498 29.6519C72.324 29.5353 71.9399 29.3005 71.6419 28.9748C71.3663 28.726 71.1461 28.4219 70.9956 28.0823C70.8118 27.7644 70.7162 27.4032 70.7187 27.036C70.8094 26.2853 71.1732 25.5944 71.7408 25.0949C72.3085 24.5954 73.0401 24.3223 73.7962 24.3278L79.151 23.9277L79.2433 24.851ZM58.5933 33.0987H63.702V19.1268C63.786 18.1457 63.6599 17.1581 63.332 16.2296C63.0041 15.3012 62.482 14.4533 61.8005 13.7427C61.1189 13.032 60.2937 12.4749 59.3798 12.1084C58.4659 11.742 57.4843 11.5747 56.5006 11.6177C55.3496 11.5947 54.2098 11.848 53.1769 12.3563C52.1573 12.8183 51.2689 13.5269 50.5918 14.4182V3.98547H45.5447V33.0987H50.6841V22.0812C50.6841 19.4961 51.9767 16.2647 55.0542 16.2647C58.1317 16.2647 58.5933 17.7419 58.5933 20.1731V33.0987Z" fill="#0A1E2F"/>
<path d="M200.275 33.4838C198.398 33.4838 196.762 33.0144 195.367 32.0756C193.982 31.1368 192.906 29.8516 192.141 28.2201C191.375 26.5886 190.992 24.7292 190.992 22.642C190.992 20.5365 191.38 18.6635 192.154 17.0228C192.938 15.3822 194.023 14.097 195.408 13.1674C196.794 12.2286 198.402 11.7592 200.234 11.7592C201.638 11.7592 202.91 12.0326 204.049 12.5795C205.188 13.1172 206.127 13.8783 206.865 14.8627C207.613 15.8379 208.082 16.9773 208.273 18.2806H205.813C205.557 17.0957 204.942 16.084 203.967 15.2455C203.001 14.3978 201.77 13.974 200.275 13.974C198.936 13.974 197.751 14.3386 196.721 15.0677C195.691 15.7878 194.884 16.795 194.301 18.0892C193.727 19.3744 193.439 20.8646 193.439 22.5599C193.439 24.2644 193.722 25.7728 194.287 27.0853C194.852 28.3887 195.645 29.4095 196.666 30.1478C197.696 30.8861 198.899 31.2552 200.275 31.2552C201.205 31.2552 202.053 31.0821 202.818 30.7357C203.593 30.3802 204.24 29.8789 204.76 29.2318C205.288 28.5847 205.644 27.8145 205.826 26.9213H208.287C208.105 28.1882 207.654 29.3184 206.934 30.3119C206.223 31.2963 205.298 32.071 204.158 32.6361C203.028 33.2012 201.734 33.4838 200.275 33.4838ZM219.355 33.4838C217.541 33.4838 215.937 33.0235 214.543 32.1029C213.157 31.1823 212.072 29.9108 211.289 28.2885C210.505 26.6569 210.113 24.7748 210.113 22.642C210.113 20.4909 210.505 18.5996 211.289 16.9681C212.072 15.3275 213.157 14.0515 214.543 13.14C215.937 12.2194 217.541 11.7592 219.355 11.7592C221.169 11.7592 222.768 12.2194 224.154 13.14C225.539 14.0606 226.624 15.3366 227.408 16.9681C228.201 18.5996 228.597 20.4909 228.597 22.642C228.597 24.7748 228.205 26.6569 227.421 28.2885C226.638 29.9108 225.548 31.1823 224.154 32.1029C222.768 33.0235 221.169 33.4838 219.355 33.4838ZM219.355 31.2552C220.813 31.2552 222.048 30.8633 223.06 30.0795C224.072 29.2956 224.837 28.252 225.357 26.9486C225.886 25.6452 226.15 24.2097 226.15 22.642C226.15 21.0743 225.886 19.6342 225.357 18.3217C224.837 17.0092 224.072 15.9564 223.06 15.1635C222.048 14.3705 220.813 13.974 219.355 13.974C217.906 13.974 216.671 14.3705 215.65 15.1635C214.638 15.9564 213.868 17.0092 213.339 18.3217C212.82 19.6342 212.56 21.0743 212.56 22.642C212.56 24.2097 212.82 25.6452 213.339 26.9486C213.868 28.252 214.638 29.2956 215.65 30.0795C216.662 30.8633 217.897 31.2552 219.355 31.2552ZM231.63 33.0463V12.0463H233.995V15.2728H234.213C234.633 14.1882 235.33 13.336 236.305 12.7162C237.29 12.0873 238.47 11.7728 239.846 11.7728C241.296 11.7728 242.485 12.1146 243.415 12.7982C244.353 13.4727 245.055 14.4024 245.52 15.5873H245.698C246.172 14.4206 246.942 13.4955 248.008 12.8119C249.084 12.1192 250.387 11.7728 251.919 11.7728C253.869 11.7728 255.409 12.3881 256.54 13.6185C257.67 14.8399 258.235 16.6263 258.235 18.9779V33.0463H255.801V18.9779C255.801 17.3191 255.378 16.0749 254.53 15.2455C253.682 14.4161 252.566 14.0013 251.18 14.0013C249.576 14.0013 248.341 14.4935 247.475 15.4779C246.609 16.4623 246.176 17.711 246.176 19.224V33.0463H243.688V18.7592C243.688 17.3373 243.292 16.1888 242.499 15.3138C241.706 14.4388 240.589 14.0013 239.149 14.0013C238.183 14.0013 237.312 14.2383 236.538 14.7123C235.772 15.1862 235.166 15.847 234.719 16.6947C234.282 17.5332 234.063 18.4994 234.063 19.5931V33.0463H231.63ZM262.368 33.0463V12.0463H264.733V15.2728H264.952C265.371 14.1882 266.068 13.336 267.044 12.7162C268.028 12.0873 269.208 11.7728 270.585 11.7728C272.034 11.7728 273.223 12.1146 274.153 12.7982C275.092 13.4727 275.794 14.4024 276.258 15.5873H276.436C276.91 14.4206 277.68 13.4955 278.747 12.8119C279.822 12.1192 281.126 11.7728 282.657 11.7728C284.607 11.7728 286.148 12.3881 287.278 13.6185C288.408 14.8399 288.973 16.6263 288.973 18.9779V33.0463H286.54V18.9779C286.54 17.3191 286.116 16.0749 285.268 15.2455C284.421 14.4161 283.304 14.0013 281.919 14.0013C280.314 14.0013 279.079 14.4935 278.214 15.4779C277.348 16.4623 276.915 17.711 276.915 19.224V33.0463H274.426V18.7592C274.426 17.3373 274.03 16.1888 273.237 15.3138C272.444 14.4388 271.327 14.0013 269.887 14.0013C268.921 14.0013 268.051 14.2383 267.276 14.7123C266.51 15.1862 265.904 15.847 265.458 16.6947C265.02 17.5332 264.801 18.4994 264.801 19.5931V33.0463H262.368ZM306.45 25.0209V12.0463H308.884V33.0463H306.45V29.5599H306.259C305.766 30.6355 304.987 31.5332 303.921 32.2533C302.854 32.9642 301.551 33.3197 300.01 33.3197C298.671 33.3197 297.481 33.028 296.442 32.4447C295.403 31.8523 294.587 30.9864 293.995 29.847C293.402 28.7077 293.106 27.3086 293.106 25.6498V12.0463H295.54V25.4994C295.54 27.14 296.023 28.4616 296.989 29.4642C297.955 30.4577 299.195 30.9545 300.708 30.9545C301.656 30.9545 302.567 30.7266 303.442 30.2709C304.317 29.8151 305.037 29.1498 305.602 28.2748C306.167 27.3907 306.45 26.306 306.45 25.0209ZM315.45 19.9213V33.0463H313.016V12.0463H315.382V15.3412H315.6C316.093 14.2657 316.858 13.4043 317.897 12.7572C318.945 12.101 320.24 11.7728 321.78 11.7728C323.193 11.7728 324.432 12.0691 325.499 12.6615C326.574 13.2448 327.408 14.1062 328.001 15.2455C328.602 16.3848 328.903 17.7839 328.903 19.4427V33.0463H326.47V19.5931C326.47 17.8705 325.986 16.5079 325.02 15.5052C324.063 14.5026 322.778 14.0013 321.165 14.0013C320.062 14.0013 319.082 14.2383 318.225 14.7123C317.369 15.1862 316.69 15.8698 316.188 16.7631C315.696 17.6472 315.45 18.6999 315.45 19.9213ZM333.029 33.0463V12.0463H335.476V33.0463H333.029ZM334.273 8.43689C333.772 8.43689 333.344 8.26827 332.988 7.93103C332.633 7.58468 332.455 7.16996 332.455 6.68689C332.455 6.20382 332.633 5.79366 332.988 5.45642C333.344 5.11007 333.772 4.93689 334.273 4.93689C334.775 4.93689 335.203 5.11007 335.558 5.45642C335.914 5.79366 336.092 6.20382 336.092 6.68689C336.092 7.16996 335.914 7.58468 335.558 7.93103C335.203 8.26827 334.775 8.43689 334.273 8.43689ZM347.874 12.0463V14.1654H337.852V12.0463H347.874ZM340.983 7.01501H343.431V27.5638C343.431 28.4388 343.581 29.127 343.882 29.6283C344.183 30.1205 344.574 30.4714 345.058 30.681C345.541 30.8816 346.056 30.9818 346.602 30.9818C346.921 30.9818 347.195 30.9636 347.423 30.9271C347.651 30.8816 347.851 30.836 348.024 30.7904L348.544 32.9916C348.307 33.0827 348.015 33.1648 347.669 33.2377C347.323 33.3197 346.894 33.3607 346.384 33.3607C345.49 33.3607 344.629 33.1648 343.8 32.7728C342.979 32.3809 342.305 31.7976 341.776 31.0228C341.248 30.2481 340.983 29.2865 340.983 28.1381V7.01501ZM352.786 40.9213C352.303 40.9213 351.852 40.8757 351.433 40.7845C351.013 40.6934 350.681 40.5931 350.435 40.4838L351.091 38.3373C351.92 38.5925 352.659 38.6836 353.306 38.6107C353.953 38.5469 354.527 38.2552 355.028 37.7357C355.53 37.2253 355.976 36.4414 356.368 35.3842L357.134 33.2513L349.409 12.0463H352.048L358.282 29.8334H358.474L364.708 12.0463H367.347L358.46 36.3685C358.086 37.3802 357.626 38.2233 357.079 38.8978C356.532 39.5814 355.899 40.0873 355.179 40.4154C354.468 40.7526 353.67 40.9213 352.786 40.9213Z" fill="black"/>
</g>
<defs>
<clipPath id="clip0_902_149">
<rect width="375" height="42" fill="white" transform="translate(0.859375 0.0462646)"/>
</clipPath>
</defs>
</svg>
