<svg viewBox="0 0 114 25" fill="none" xmlns="http://www.w3.org/2000/svg">
  <path d="M22.372 7.863l-6.102-6.06a6.852 6.852 0 00-2.522-1.51c-2.084-.69-4.151-.149-5.83 1.51l-6.102 6.06a6.794 6.794 0 00-1.522 2.504c-.694 2.07-.149 4.122 1.522 5.789l6.102 6.06a6.94 6.94 0 002.522 1.518 5.584 5.584 0 001.761.296c1.464 0 2.87-.616 4.069-1.807l6.102-6.06a6.793 6.793 0 001.522-2.504c.694-2.077.148-4.13-1.522-5.796zM12.565 3.56c.687.205 1.2.673 1.24.706l1.803 1.79-3.514 3.49-3.514-3.49 1.81-1.798c.488-.476 1.166-.993 2.175-.698zm-8.98 7.981c.207-.681.678-1.19.711-1.232L6.1 8.52l3.514 3.49L6.1 15.5 4.289 13.7c-.48-.484-1.001-1.165-.704-2.159zm8.038 8.917c-.687-.205-1.2-.673-1.24-.706l-1.803-1.79 3.514-3.49 3.514 3.49-1.81 1.798c-.489.476-1.175.994-2.175.698zm8.98-7.98c-.207.68-.679 1.19-.712 1.23l-1.802 1.79-3.514-3.489 3.514-3.49 1.81 1.799c.48.484 1.001 1.157.703 2.16z" fill="#00ADE4"/>
  <path d="M38.472 20.012h3.15v-8.679c0-2.677-1.637-4.655-4.432-4.655-1.364 0-2.82.6-3.58 1.7v-6.43h-3.15v18.064h3.15v-6.856c0-1.601.802-3.605 2.696-3.605 1.662 0 2.166.928 2.166 2.423v8.038zM51.19 14.88c0 1.913-1.373 2.956-3.325 2.956-.975 0-1.852-.616-1.852-1.61 0-1.042.926-1.608 1.877-1.69l3.3-.247v.591zm2.62 5.33c.753 0 1.026-.124 1.547-.346v-2.282s-.199.049-.397.049c-.52 0-.727-.222-.727-.821v-4.787c0-.87-.05-1.79-.373-2.603-.752-1.938-2.646-2.627-4.87-2.627-2.902 0-5.226 1.289-5.4 4.195h3.027c.074-1.19.926-1.839 2.373-1.839 1.778 0 2.2.821 2.2 2.036v.797l-3.82.27c-2.473.173-4.4 1.586-4.4 4.04 0 2.11 1.596 4.048 4.697 4.048 1.852 0 3.349-.895 3.944-1.937.1.969.852 1.806 2.2 1.806zm9.816-10.347c.165 0 .33.017.504.033V6.973c-.132-.008-.273-.033-.405-.033-1.521 0-3.076.616-3.671 2.11l-.273-1.937h-2.646v12.9h3.15v-6.504c-.008-2.077 1.141-3.646 3.34-3.646zm9.864 10.15h3.126v-8.606c0-2.677-1.62-4.614-4.399-4.614-1.496 0-3.051.615-3.82 1.987l-.223-1.659h-2.622v12.9h3.126v-5.264c0-1.092-.025-2.43.422-3.448.422-.945 1.15-1.634 2.249-1.634 1.645 0 2.15.92 2.15 2.43v7.907h-.008zm13.371-7.744h-5.623c.025-.845.224-1.437.678-2.011.447-.6 1.224-.994 2.175-.994.902 0 1.546.296 1.977.747.496.55.768 1.298.793 2.258zm3.126 1.396c.05-1.61-.174-3.079-1.125-4.491-1.075-1.618-2.82-2.381-4.746-2.381-1.77 0-3.175.648-4.15 1.634-1.25 1.264-1.878 3.103-1.878 5.156 0 2.11.703 3.917 2.001 5.156 1.026.97 2.324 1.585 4.101 1.585 1.646 0 3.275-.517 4.375-1.815.504-.59 1.025-1.609 1.1-2.38h-3.002a2.294 2.294 0 01-.629 1.091c-.446.444-1 .624-1.902.624-.851 0-1.471-.37-1.926-.796-.629-.6-.976-1.535-.951-2.529h8.699c.008-.263.033-.854.033-.854zm4.192-2.956c0-.673.447-1.141 1-1.363.472-.197.902-.197 1.349-.197.653 0 1.323.222 1.695.591.297.32.52.723.52 1.216h2.977c0-.945-.446-1.914-1.149-2.653-.951-1.018-2.522-1.51-4.077-1.51-1.62 0-3.001.468-3.944 1.289-.777.673-1.323 1.584-1.323 2.906 0 1.634 1.2 3.08 2.977 3.449 1.15.246 2.448.32 3.597.493.802.123 1.298.624 1.298 1.363 0 1.412-1.596 1.642-2.646 1.642-.901 0-1.472-.173-1.976-.575-.323-.263-.57-.706-.662-1.174h-2.943c.099 1.075.678 2.012 1.356 2.66 1.075 1.018 2.547 1.486 4.2 1.486 1.77 0 3.399-.443 4.449-1.486.678-.665 1.125-1.585 1.125-2.824 0-2.037-1.497-3.326-3.548-3.646-1.273-.197-1.596-.222-2.77-.37-.703-.106-1.505-.377-1.505-1.297zm16.546.247h2.977c0-.945-.447-1.914-1.149-2.653-.951-1.018-2.522-1.51-4.069-1.51-1.62 0-2.993.468-3.944 1.289-.778.673-1.323 1.584-1.323 2.906 0 1.634 1.199 3.08 2.977 3.449 1.149.246 2.447.32 3.596.493.803.123 1.299.624 1.299 1.363 0 1.412-1.596 1.642-2.647 1.642-.9 0-1.471-.173-1.976-.575-.322-.263-.57-.706-.652-1.174h-2.945c.1 1.075.679 2.012 1.357 2.66 1.074 1.018 2.547 1.486 4.201 1.486 1.777 0 3.398-.443 4.448-1.486.678-.665 1.125-1.585 1.125-2.824 0-2.037-1.497-3.326-3.548-3.646-1.273-.197-1.596-.222-2.77-.37-.695-.098-1.496-.369-1.496-1.289 0-.673.446-1.14 1-1.363.471-.197.901-.197 1.348-.197.645 0 1.323.222 1.695.592.272.312.496.714.496 1.207z" fill="#222"/>
</svg>
